<?xml version="1.0" encoding="UTF-8"?>
<svg viewBox="0 0 400 300" version="1.1" xmlns="http://www.w3.org/2000/svg" xmlns:xlink="http://www.w3.org/1999/xlink">
    <defs>
        <!-- Based on the actual game gfx. -->
        <symbol id="svg-ets2-truck" viewBox="0 0 54 36">
            <path d="m14 31a2 2 0 0 0 -2 -2 2 2 0 0 0 -2 2 2 2 0 0 0 2 2 2 2 0 0 0 2 -2zm3 0a5 5 0 0 1 -5 5 5 5 0 0 1 -5 -5 5 5 0 0 1 5 -5 5 5 0 0 1 5 5zm-14-25h8v8h-8zm45 25a2 2 0 0 0 -2 -2 2 2 0 0 0 -2 2 2 2 0 0 0 2 2 2 2 0 0 0 2 -2zm3 0a5 5 0 0 1 -5 5 5 5 0 0 1 -5 -5 5 5 0 0 1 5 -5 5 5 0 0 1 5 5zm-38-31-3 3h-8l-1 1v10h-1v10h2v2h-2v6h6.0859a6 6 0 0 1 -0.0859 -1 6 6 0 0 1 6 -6 6 6 0 0 1 6 6 6 6 0 0 1 -0.08984 1h8.09v-1h7v1h7.0859a6 6 0 0 1 -0.086 -1 6 6 0 0 1 6 -6 6 6 0 0 1 6 6 6 6 0 0 1 -0.08984 1h2.09v-6h-1v-2h-3v-3h-12v3h-17v-2h3v-19h-1v-3h-10z"/>
        </symbol>

        <!-- Based on the actual game gfx. -->
        <symbol id="svg-ets2-trailer" viewBox="0 0 105 39">
            <path d="m95 34a2 2 0 0 0 -2 -2 2 2 0 0 0 -2 2 2 2 0 0 0 2 2 2 2 0 0 0 2 -2zm3 0a5 5 0 0 1 -5 5 5 5 0 0 1 -5 -5 5 5 0 0 1 5 -5 5 5 0 0 1 5 5zm-14 0a2 2 0 0 0 -2 -2 2 2 0 0 0 -2 2 2 2 0 0 0 2 2 2 2 0 0 0 2 -2zm3 0a5 5 0 0 1 -5 5 5 5 0 0 1 -5 -5 5 5 0 0 1 5 -5 5 5 0 0 1 5 5zm-14 0a2 2 0 0 0 -2 -2 2 2 0 0 0 -2 2 2 2 0 0 0 2 2 2 2 0 0 0 2 -2zm3 0a5 5 0 0 1 -5 5 5 5 0 0 1 -5 -5 5 5 0 0 1 5 -5 5 5 0 0 1 5 5zm-31-4h13v4h-13zM2 0h101a2 2 0 0 1 2 2v26h-105v-26a2 2 0 0 1 2-2z"/>
        </symbol>

        <!-- Based on the actual game gfx. -->
        <symbol id="svg-ats-truck" viewBox="0 0 73 40">
            <path d="M15 34a3 3 0 0 0 -3 -3 3 3 0 0 0 -3 3 3 3 0 0 0 3 3 3 3 0 0 0 3 -3zm3 0a6 6 0 0 1 -6 6 6 6 0 0 1 -6 -6 6 6 0 0 1 6 -6 6 6 0 0 1 6 6zm47 0a3 3 0 0 0 -3 -3 3 3 0 0 0 -3 3 3 3 0 0 0 3 3 3 3 0 0 0 3 -3zm3 0a6 6 0 0 1 -6 6 6 6 0 0 1 -6 -6 6 6 0 0 1 6 -6 6 6 0 0 1 6 6zm-13-14h14v3h-14zM16 9h9v8h-9zm11 0h4v8h-4zM27,0l-4 4h-6l-2 2v11h-12v2h-1v10h-2v6h5.078a7 7 0 0 1 -0.078 -1 7 7 0 0 1 7 -7 7 7 0 0 1 7 7 7 7 0 0 1 -0.08 1h6.08v-2h11v2h19.078a7 7 0 0 1 -0.078 -1 7 7 0 0 1 7 -7 7 7 0 0 1 7 7 7 7 0 0 1 -0.08 1h2.08v1h2v-12h-2v1h-21v-1h-3v-24h-8v24h-1v-24z"/>
        </symbol>

        <!-- Based on the actual game gfx. -->
        <symbol id="svg-ats-trailer" viewBox="0 0 114 43">
            <path d="m104 38a2 2 0 0 0 -2 -2 2 2 0 0 0 -2 2 2 2 0 0 0 2 2 2 2 0 0 0 2 -2zm3 0a5 5 0 0 1 -5 5 5 5 0 0 1 -5 -5 5 5 0 0 1 5 -5 5 5 0 0 1 5 5zm-14 0a2 2 0 0 0 -2 -2 2 2 0 0 0 -2 2 2 2 0 0 0 2 2 2 2 0 0 0 2 -2zm3 0a5 5 0 0 1 -5 5 5 5 0 0 1 -5 -5 5 5 0 0 1 5 -5 5 5 0 0 1 5 5zm-42-4h21v4h-21zM2 0h110a2 2 0 0 1 2 2v30h-114v-30a2 2 0 0 1 2-2z"/>
        </symbol>

        <!-- Based on the actual game icon. 12x12 image with 2 pixel margin. -->
        <symbol id="svg-gear" viewBox="-2 -2 16 16">
            <path d="m0 0v12h2v-5h3v5h2v-5h3 2v-2-5h-2v5h-3v-5h-2v5h-3v-5h-2z"/>
        </symbol>

        <!-- Based on the actual game icon. -->
        <symbol id="svg-fuel" viewBox="0 0 16 16">
            <path d="m9 3h-6v3h6zm-8-2h10v6h-1v6h2v-11h1v3h1v2h-1v8h-12v-2h1v-6h-1z"/>
        </symbol>

        <!-- Based on https://www.mapbox.com/maki/ -->
        <!-- <symbol id="svg-fuel" viewBox="0 0 750 900">
            <path d="m50 0c-28 0-50 22-50 50v800c0 25 25 50 50 50h450c25 0 50-25 50-50v-250h25c25 0 25 25 25 25v100c0 50 25 75 75 75s75-25 75-75v-275c0-50-100-100-100-150v-150h-50l-50-50v-50c0-28-22-50-50-50zm50 100h350v200h-350zm450 150h50v75c0 50 100 100 100 150v250c0 25-25 25-25 25s-25 0-25-25v-125c0-25-25-50-50-50h-50z"/>
        </symbol> -->

        <!-- Based on the actual game icon. -->
        <symbol id="svg-fatigue" viewBox="0 0 18 12">
            <path d="m5.5 4.5a1.5 1.5 0 0 1 -1.5 1.5 1.5 1.5 0 0 1 -1.5 -1.5 1.5 1.5 0 0 1 1.5 -1.5 1.5 1.5 0 0 1 1.5 1.5zm0.5-1.5v3h1 8a4 3 0 0 0 -4 -3h-5zm-6-3h2v7h14v-5h2v10h-2v-3h-14v3h-2z"/>
        </symbol>

        <!-- Based on http://typicons.com/ 24x24 image with 3 pixel margin. -->
        <symbol id="svg-compass" viewBox="3 3 18 18">
            <path d="M12 5c3.859.001 7 3.142 7 7.001 0 3.858-3.141 6.998-7 6.999-3.859 0-7-3.14-7-6.999s3.141-7 7-7.001m0-2c-4.971.001-9 4.03-9 9.001 0 4.97 4.029 8.999 9 8.999 4.97-.001 9-4.03 9-8.999 0-4.971-4.029-9-9-9.001zM16.182 7.819c-.129-.128-.315-.178-.491-.127l-5.951 1.706c-.166.048-.295.177-.342.343l-1.707 5.951c-.051.175-.002.363.127.491.095.095.223.146.354.146l.138-.02 5.95-1.708c.165-.047.295-.177.342-.343l1.707-5.949c.05-.173.002-.361-.127-.49zm-7.282 7.282l1.383-4.817 3.434 3.435-4.817 1.382z"/>
        </symbol>

        <!-- Based on http://fontawesome.io/ -->
        <symbol id="svg-phone-squared" viewBox="0 0 857 858">
            <path d="m714 595q0-6-1-9-1-5-21-17t-50-27l-29-16q-3-2-11-8t-14-8-12-3q-10 0-26 18t-32 37-24 18q-4 0-9-2t-9-3-9-6-8-4q-56-31-95-71t-71-95q-1-2-5-8t-5-9-4-9-2-9q0-8 12-19t25-21 25-23 11-20q0-5-2-12t-9-14-7-10q-2-4-8-16t-14-25-15-27-14-23-9-10-9-1q-27 0-56 13-26 11-45 52t-19 73q0 9 1 19t3 17 5 19 6 16 7 18 6 17q33 92 121 179t178 121q4 1 17 6t19 7 16 5 18 5 17 3 19 2q32 0 73-19t53-45q12-30 12-56zm143-434v536q0 66-47 113t-114 48h-535q-67 0-114-48t-47-113v-536q0-66 47-113t114-48h535q67 0 114 48t47 113z"/>
        </symbol>

        <!-- Based on http://www.entypo.com/ -->
        <symbol id="svg-help-circled" viewBox="0 0 920 920">
            <path d="m454.12-0.02963q190-2 326 130t140 322q2 190-131 327t-323 141q-190 2-327-131t-139-323q-4-190 130-327t324-139zm-2 740q30 0 49-19t19-47q2-30-17-49t-49-19h-2q-28 0-47 18t-21 46q0 30 19 49t47 21h2zm166-328q26-34 26-78 0-78-54-116-52-38-134-38-64 0-104 26-68 42-72 146v4h110v-4q0-26 16-54 16-24 54-24 40 0 52 20 16 20 16 44 0 18-16 40-8 12-20 20l-6 4q-6 4-16 11t-20 15-21 17-17 17q-14 20-18 78v8h108v-4q0-12 4-28 6-20 28-36l28-18q46-34 56-50z"/>
        </symbol>

        <!-- Based on U+27A4 Black Rightwards Arrowhead -->
        <symbol id="svg-arrow-up" viewBox="-3.5 0 39 39">
            <path d="M16,24 1,32 16,0 31,32z"/>
        </symbol>
    </defs>
	<use xlink:href="#svg-ets2-truck"    x="0"   y="0"   width="100" height="100"/>
	<use xlink:href="#svg-ets2-trailer"  x="100" y="0"   width="100" height="100"/>
	<use xlink:href="#svg-ats-truck"     x="200" y="0"   width="100" height="100"/>
	<use xlink:href="#svg-ats-trailer"   x="300" y="0"   width="100" height="100"/>
	<use xlink:href="#svg-gear"          x="0"   y="100" width="100" height="100"/>
	<use xlink:href="#svg-fuel"          x="100" y="100" width="100" height="100"/>
	<use xlink:href="#svg-fatigue"       x="200" y="100" width="100" height="100"/>
	<use xlink:href="#svg-compass"       x="0"   y="200" width="100" height="100"/>
	<use xlink:href="#svg-phone-squared" x="100" y="200" width="100" height="100"/>
	<use xlink:href="#svg-help-circled"  x="200" y="200" width="100" height="100"/>
	<use xlink:href="#svg-arrow-up"      x="300" y="200" width="100" height="100"/>
</svg>

